<svg xmlns="http://www.w3.org/2000/svg" width="731.67004" height="633.31836" viewBox="0 0 731.67004 633.31836" xmlns:xlink="http://www.w3.org/1999/xlink"><path d="M0,631.95199c0,.66003,.53003,1.19,1.19006,1.19H730.48004c.65997,0,1.19-.52997,1.19-1.19,0-.65997-.53003-1.19-1.19-1.19H1.19006c-.66003,0-1.19006,.53003-1.19006,1.19Z" fill="#3f3d56"/><polygon points="443.52794 140.65478 447.52794 163.65478 404.52794 170.65478 414.52794 138.65478 443.52794 140.65478" fill="#a0616a"/><path d="M553.20127,155.85828c8.6628,3.88349,10.73756,18.06636,4.63262,31.6765-2.36475,5.47465-6.00701,10.3022-10.62111,14.08036l-8.72977,23.30366c-5.72509,27.77911-18.76174,57.02688-36.71547,54.75955-25.41067-3.20904-33.41572-34.09399-33.41572-34.09399l34.19528-13.37684,15.26626-29.43162,5.20466-12.00826c-.24777-5.95631,.93401-11.88519,3.44759-17.29062,6.1048-13.61692,18.07329-21.50249,26.73567-17.61875Z" fill="#a0616a"/><path d="M262.10508,602.83349l-23.71289-17.52637,.18848-.37695,132.11426-263.22559,.24902-.04297,106.38184-18.06445,22.1582,49.35254,57.94434,81.46777c3.99121,5.6123,6.07715,12.21875,6.0332,19.10547l-.93652,145.11816-35.94531,1.02637-.04883-.45996-12.53906-117.3291c-.91406-8.55176-5.34961-16.46289-12.1709-21.70312l-70.72168-54.33496-168.99414,196.99316Z" fill="#2f2e41"/><path d="M242.02794,587.15478s-12,2-16,9c-4,7-16,22-16,22,0,0-9,17,12,15,21-2,29-11,29-11l9-25-18-10Z" fill="#2f2e41"/><path d="M545.02794,587.15478s12,2,16,9,16,22,16,22c0,0,9,17-12,15s-29-11-29-11l-9-25,18-10Z" fill="#2f2e41"/><polygon points="384.52794 169.65478 455.52794 155.65478 495.52794 168.65478 484.52794 317.65478 371.02794 322.15478 384.52794 169.65478" fill="#6c63ff"/><polygon points="488.40565 165.31704 503.87283 188.67868 507.46096 246.27317 461.52794 249.75985 462.76538 175.14438 488.40565 165.31704" fill="#6c63ff"/><polygon points="530.91204 221.37242 512.32525 213.98789 488.6953 257.75575 510.27735 268.51668 530.91204 221.37242" fill="#a0616a"/><path d="M543.8668,184.1245c-1.29102,0-2.58496-.21875-3.82031-.66016-2.97656-1.06445-5.39355-3.3418-6.63086-6.25l-14.09668-33.11914c-5.31055-12.47656-11.41016-24.77051-18.12988-36.54004l-2.94434-5.15723c-2.02539-3.11523-49.99512-76.93945-52.27637-82.70508-1.7207-4.34766,3.41992-13.2627,3.63965-13.64062l.05957-.08203c.11426-.12695,11.62109-12.66504,25.46875-1.02148,13.59668,11.43066,36.48145,87.18555,37.44824,90.40527l.61914,1.55957c5.64453,14.25977,12.78125,27.98926,21.21289,40.80469l18.94922,28.79883c1.76172,2.67871,2.31152,5.99512,1.50684,9.09863-.80469,3.10254-2.89453,5.7334-5.73535,7.21875-1.6377,.85645-3.45117,1.29004-5.27051,1.29004Z" fill="#3f3d56"/><path d="M417.43149,194.65686l22.32552,1.25346,42.89415-45.25089,16.76033-19.92414c1.46783-5.77814,4.29772-11.12051,8.25395-15.58053,9.74815-11.29815,23.47325-15.42745,30.66102-9.22585,7.18771,6.20111,5.11512,20.38383-4.63072,31.67677-3.83353,4.56826-8.70575,8.15175-14.20824,10.45018l-4.13311,5.45086-47.33927,66.5386c-8.54139,12.00551-23.64454,17.43806-37.8762,13.62394l-28.97433-7.7652,16.2669-31.2472Z" fill="#a0616a"/><path d="M404.90189,239.2469l-34.4505-22.12919c-10.94908-7.03317-15.15672-20.81052-10.00553-32.75953,3.12899-7.25722,9.27106-12.69673,16.85399-14.92333,7.57288-2.2283,15.69-.97567,22.24708,3.43904l33.82837,22.7685-28.47342,43.60451Z" fill="#6c63ff"/><g><circle cx="421.54832" cy="113.80876" r="35.30005" fill="#a0616a"/><path d="M444.76986,144.27902l-3.04796-5.07848s13.34903-8.99854,2.31997-14.22112c-11.02906-5.22258-12.772-17.99208-12.772-17.99208,0,0-32.21571-9.28299-30.47527-16.24851,1.74044-6.96552-3.19394-11.89866,4.93188-14.8019,8.12582-2.90324,44.40381-.00563,48.46797,8.41027,4.06416,8.41589,8.1302,31.63306,6.09905,34.82575-2.03114,3.19269-15.52364,25.10608-15.52364,25.10608Z" fill="#2f2e41"/><path d="M435.62284,104.37479l-32.79773-21.76242s-42.37392-13.05458-26.4086,11.90241l13.49563,2.75539s36.71404,8.55687,45.71071,7.10462Z" fill="#6c63ff"/><path d="M425.7547,99.44228l34.24935,25.82533s20.02073-35.69972-11.32539-53.39923c-31.34611-17.69951-51.22274,10.01912-51.22274,10.01912l8.27242,8.85069,20.02635,8.70409Z" fill="#6c63ff"/></g><path d="M179.65782,41.15478c0,10.77979,8.74023,19.52979,19.53027,19.52979,5.28027,0,10.07031-2.09961,13.58008-5.50977,3.66992-3.55029,5.93945-8.52002,5.93945-14.02002,0-10.78027-8.73926-19.53027-19.51953-19.53027-3.37988,0-6.5498,.86035-9.32031,2.36035-.46973,.25977-.92969,.54004-1.37988,.83984-4.21973,2.76025-7.29004,7.10986-8.37988,12.2002-.13965,.58008-.24023,1.16992-.2998,1.77002-.10059,.77002-.15039,1.56006-.15039,2.35986Z" fill="#6c63ff"/><path d="M179.80821,38.79492c.30957,.33984,.62988,.70996,.97949,1.12988,1.18066,1.41992,1.65039,2.18994,2.31055,3.25977,.56934,.93018,1.29004,2.09033,2.69922,4.05029,2.91016,4.04004,4.37012,6.06982,6.64062,7.91016,2.24023,1.80957,5.03027,4.06982,9.21973,4.35986,.29004,.02002,.58008,.02002,.86035,.02002,5.06934,0,8.76953-3.05029,10.17969-4.41992,3.69043-3.6001,4.45996-7.97021,4.62012-9.68018,.12988-1.37988,.30957-6.22021-2.86035-10.56982-2.7998-3.84033-6.66992-5.20996-10.41992-6.55029-2.4502-.87012-4.30957-1.18018-5.95996-1.45996-2.25977-.37988-4.2002-.70996-7.16992-2.27002-.41016-.21973-.75-.41016-1.04004-.58984-.46973,.25977-.92969,.54004-1.37988,.83984,.07031,.04004,.15039,.08984,.23047,.14014,.38965,.22998,.86914,.50977,1.5293,.85986,3.16992,1.66992,5.32031,2.04004,7.58984,2.41992,1.6709,.28027,3.40039,.57031,5.73047,1.40039,3.7002,1.31982,7.2002,2.55957,9.74023,6.0498,2.87988,3.9502,2.70996,8.33984,2.59961,9.58984-.14941,1.56006-.84961,5.53027-4.2002,8.80029-1.34961,1.31006-5.00977,4.33984-9.94922,4-3.75-.26025-6.34082-2.36035-8.43066-4.04004-2.12012-1.72021-3.54004-3.7002-6.37012-7.63037-1.38965-1.92969-2.08984-3.06982-2.64941-3.97998-.66016-1.06982-1.18066-1.91992-2.41992-3.40967-.66992-.81006-1.26074-1.45996-1.78027-2-.13965,.58008-.24023,1.16992-.2998,1.77002Z" fill="#e6e6e6"/></svg>